<?xml version="1.0" encoding="UTF-8"?>
<svg width="24px" height="24px" viewBox="0 0 24 24" version="1.1" xmlns="http://www.w3.org/2000/svg" xmlns:xlink="http://www.w3.org/1999/xlink">
    <!-- Generator: sketchtool 46.2 (44496) - http://www.bohemiancoding.com/sketch -->
    <title>1548BE94-67BA-451A-90AF-F500835DA170</title>
    <desc>Created with sketchtool.</desc>
    <defs></defs>
    <g id="Symbols" stroke="none" stroke-width="1" fill="none" fill-rule="evenodd">
        <g id="ic/-ic-edit-name">
            <g>
                <polygon id="Shape" fill-opacity="0.2" fill="#FF0000" opacity="0" transform="translate(12.000000, 12.000000) rotate(-360.000000) translate(-12.000000, -12.000000) " points="0 0 24 0 24 24 0 24"></polygon>
                <g id="Page-1" transform="translate(6.000000, 6.000000)" fill="#1A1A1A">
                    <path d="M1.14640303,9.64640303 L3.35339987,11.8533999 C3.3014615,11.90525 3.2395673,11.9441481 3.1707,11.9691 L0.6707,12.9691 C0.6147,12.9891 0.5577,12.9991 0.4997,12.9991 C0.3707,12.9991 0.2427,12.9481 0.1467,12.8531 C0.0097,12.7161 -0.0363,12.5111 0.0307,12.3291 L1.0307,9.8291 C1.05565146,9.76023398 1.09554471,9.69834081 1.14640303,9.64640303 Z M1.85350678,8.93929322 L10.6467,0.1461 C10.8417,-0.0489 11.1587,-0.0489 11.3537,0.1461 L12.8537,1.6461 C13.0487,1.8411 13.0487,2.1581 12.8537,2.3531 L4.06050678,11.1462932 L1.85350678,8.93929322 Z" id="Combined-Shape"></path>
                </g>
            </g>
        </g>
    </g>
</svg>