<?xml version="1.0" encoding="UTF-8"?>
<svg width="32px" height="32px" viewBox="0 0 32 32" version="1.1" xmlns="http://www.w3.org/2000/svg" xmlns:xlink="http://www.w3.org/1999/xlink">
    <!-- Generator: sketchtool 46.1 (44463) - http://www.bohemiancoding.com/sketch -->
    <title>A3BAC57F-565C-4B9A-98FA-2D1034D53E64</title>
    <desc>Created with sketchtool.</desc>
    <defs></defs>
    <g id="Symbols" stroke="none" stroke-width="1" fill="none" fill-rule="evenodd">
        <g id="ic-/-ic_pan-tool">
            <g id="ic-/-pan-tool">
                <polygon id="bounds" fill-opacity="0.2" fill="#FF0000" opacity="0" points="0 0 32 0 32 32 0 32"></polygon>
                <path d="M22.9952,15.5 C22.9952,18.367 22.5382,20.796 21.6732,22.525 C21.1082,23.654 20.0992,25 18.4952,25 L13.5052,25 C13.4662,24.997 13.0452,24.95 12.4102,24.475 C11.7772,24.001 10.8062,23.003 9.7722,20.936 C7.7452,16.881 7.1222,15.604 7.1162,15.592 C7.1152,15.59 7.1152,15.589 7.1142,15.588 C6.8632,15.085 7.0412,14.426 7.5032,14.148 C7.7112,14.023 7.9542,13.991 8.1882,14.054 C8.4362,14.122 8.6452,14.29 8.7742,14.525 C8.7772,14.529 8.7792,14.533 8.7812,14.536 L10.3432,17.241 C10.6612,17.824 11.0202,18.069 11.4092,17.97 C11.8002,17.871 11.9962,17.48 11.9962,16.812 L11.9962,9 C11.9962,8.449 12.4452,8 12.9962,8 C13.5472,8 13.9962,8.449 13.9962,9 L13.9962,15.5 C13.9962,15.776 14.2202,16 14.4962,16 C14.7722,16 14.9962,15.776 14.9962,15.5 L14.9962,8 C14.9962,7.449 15.4452,7 15.9962,7 C16.5472,7 16.9962,7.449 16.9962,8 L16.9962,15.5 C16.9962,15.776 17.2202,16 17.4962,16 C17.7722,16 17.9962,15.776 17.9962,15.5 L17.9962,9 C17.9962,8.449 18.4452,8 18.9962,8 C19.5472,8 19.9962,8.449 19.9962,9 L19.9962,16.5 C19.9962,16.776 20.2202,17 20.4962,17 C20.7722,17 20.9962,16.776 20.9962,16.5 L20.9962,12 C20.9962,11.449 21.4452,11 21.9962,11 C22.5472,11 22.9962,11.449 22.9962,12 L22.9962,15.5 L22.9952,15.5 Z M21.9952,10 C21.6322,10 21.2892,10.098 20.9952,10.27 L20.9952,9 C20.9952,7.896 20.0992,7 18.9952,7 C18.5832,7 18.2012,7.125 17.8822,7.339 C17.6082,6.561 16.8662,6 15.9952,6 C15.1242,6 14.3822,6.561 14.1082,7.339 C13.7902,7.125 13.4072,7 12.9952,7 C11.8912,7 10.9952,7.896 10.9952,9 L10.9952,16.373 L9.6492,14.04 C9.3882,13.564 8.9622,13.227 8.4502,13.087 C7.9512,12.951 7.4322,13.023 6.9882,13.289 C6.0812,13.833 5.7352,15.063 6.2182,16.031 C6.2482,16.092 6.8862,17.398 8.8782,21.381 C9.8152,23.256 10.8452,24.597 11.9362,25.365 C12.7942,25.968 13.3862,25.999 13.4962,25.999 L18.4962,25.999 C19.3472,25.999 20.1382,25.722 20.8492,25.177 C21.5152,24.664 22.0952,23.922 22.5682,22.973 C23.5022,21.105 23.9962,18.521 23.9962,15.499 L23.9962,11.999 C23.9962,10.896 23.0992,9.999 21.9962,9.999 L21.9952,10 Z" id="Fill-1" fill="#1A1A1A"></path>
            </g>
        </g>
    </g>
</svg>