<svg width="32px" height="32px" viewBox="0 0 32 32" version="1.1" xmlns="http://www.w3.org/2000/svg" xmlns:xlink="http://www.w3.org/1999/xlink">
    <g id="Symbols" stroke="none" stroke-width="1" fill="none" fill-rule="evenodd">
        <g id="ic-toolbar-/-ict_text-delete">
            <g>
                <polygon id="Shape" points="0 0 32 0 32 32 0 32"></polygon>
                <path d="M22.9333333,9.725 C22.9333333,10.0148 22.6944,10.25 22.4,10.25 L9.6,10.25 C9.3056,10.25 9.06666667,10.0148 9.06666667,9.725 L9.06666667,8.675 C9.06666667,8.3852 9.3056,8.15 9.6,8.15 L22.4,8.15 C22.6944,8.15 22.9333333,8.3852 22.9333333,8.675 L22.9333333,9.725 Z M10.6666667,24.95 C10.3722667,24.95 10.1333333,24.7148 10.1333333,24.425 L10.1333333,11.3 L21.8666667,11.3 L21.8666667,24.425 C21.8666667,24.7148 21.6277333,24.95 21.3333333,24.95 L10.6666667,24.95 Z M14.4,6.575 C14.4,6.2852 14.6389333,6.05 14.9333333,6.05 L17.0666667,6.05 C17.3610667,6.05 17.6,6.2852 17.6,6.575 L17.6,7.1 L14.4,7.1 L14.4,6.575 Z M18.6666667,7.1 L18.6666667,6.575 C18.6666667,5.70665 17.9488,5 17.0666667,5 L14.9333333,5 C14.0512,5 13.3333333,5.70665 13.3333333,6.575 L13.3333333,7.1 L9.6,7.1 C8.71786667,7.1 8,7.80665 8,8.675 L8,9.725 C8,10.4096 8.44586667,10.9934 9.06666667,11.2097 L9.06666667,24.425 C9.06666667,25.29335 9.78453333,26 10.6666667,26 L21.3333333,26 C22.2154667,26 22.9333333,25.29335 22.9333333,24.425 L22.9333333,11.2097 C23.5541333,10.9934 24,10.4096 24,9.725 L24,8.675 C24,7.80665 23.2821333,7.1 22.4,7.1 L18.6666667,7.1 Z M18.6666667,12.875 L18.6666667,23.375 C18.6666667,23.6648 18.9056,23.9 19.2,23.9 C19.4944,23.9 19.7333333,23.6648 19.7333333,23.375 L19.7333333,12.875 C19.7333333,12.5852 19.4944,12.35 19.2,12.35 C18.9056,12.35 18.6666667,12.5852 18.6666667,12.875 Z M15.4666667,12.875 L15.4666667,23.375 C15.4666667,23.6648 15.7056,23.9 16,23.9 C16.2944,23.9 16.5333333,23.6648 16.5333333,23.375 L16.5333333,12.875 C16.5333333,12.5852 16.2944,12.35 16,12.35 C15.7056,12.35 15.4666667,12.5852 15.4666667,12.875 Z M12.2666667,12.875 L12.2666667,23.375 C12.2666667,23.6648 12.5056,23.9 12.8,23.9 C13.0944,23.9 13.3333333,23.6648 13.3333333,23.375 L13.3333333,12.875 C13.3333333,12.5852 13.0944,12.35 12.8,12.35 C12.5056,12.35 12.2666667,12.5852 12.2666667,12.875 Z" id="Combined-Shape" fill="#1A1A1A"></path>
            </g>
        </g>
    </g>
</svg>