<?xml version="1.0" encoding="utf-8"?>
<!-- Generator: Adobe Illustrator 21.0.0, SVG Export Plug-In . SVG Version: 6.00 Build 0)  -->
<svg version="1.1" id="Layer_1" xmlns="http://www.w3.org/2000/svg" xmlns:xlink="http://www.w3.org/1999/xlink" x="0px" y="0px"
	 viewBox="0 0 32 32" style="enable-background:new 0 0 32 32;" xml:space="preserve">
<style type="text/css">
	.st0{fill:#FF0000;fill-opacity:0;}
	.st1{fill:#191919;}
</style>
<title>2019EA2C-16B2-4900-B52D-D8252FE22232</title>
<desc>Created with sketchtool.</desc>
<g id="Symbols">
	<g id="ic-toolbar-_x2F_-ict_x5F_upload-image">
		<g id="Group-15">
			<g>
				<rect id="Rectangle-10" class="st0" width="32" height="32"/>
				<g id="Page-1" transform="translate(5.000000, 5.000000)">
					<path id="Fill-1" class="st1" d="M14.9,5.5c-0.9,0-1.7,0.7-1.7,1.7s0.7,1.7,1.7,1.7c0.9,0,1.6-0.7,1.6-1.7S15.8,5.5,14.9,5.5
						 M14.9,9.9c-1.5,0-2.8-1.2-2.8-2.7s1.2-2.8,2.8-2.8s2.8,1.2,2.8,2.8S16.4,9.9,14.9,9.9"/>
					<path id="Fill-3" class="st1" d="M20.9,20.4c0,0.3-0.2,0.5-0.5,0.5h-2L7.2,9.2C6.9,8.9,6.5,8.7,6.1,8.7c-0.4,0-0.8,0.2-1.1,0.5
						l-3.8,4.2V1.6c0-0.3,0.2-0.5,0.6-0.5h18.7c0.3,0,0.5,0.2,0.5,0.5L20.9,20.4L20.9,20.4z M1.1,20.4v-5.3L5.7,10
						c0.1-0.1,0.2-0.2,0.3-0.2c0.1,0,0.3,0.1,0.3,0.2l10.5,10.9H1.6C1.3,20.9,1.1,20.7,1.1,20.4L1.1,20.4z M20.4,0H1.6
						C0.7,0,0,0.7,0,1.6v18.7C0,21.3,0.7,22,1.6,22h18.7c0.9,0,1.6-0.7,1.6-1.6V1.6C22,0.7,21.3,0,20.4,0L20.4,0z"/>
				</g>
			</g>
		</g>
	</g>
</g>
</svg>
